<svg xmlns="http://www.w3.org/2000/svg" width="1124" height="484" viewBox="0 0 1124 484">
<rect x="0" y="0" width="1124" height="484" fill="#1e1e1e"/>
<text x="562.0" y="34" text-anchor="middle" font-family="DejaVu Sans, sans-serif" font-size="22" font-weight="bold" fill="#e8e4dd">PiercingXX — staggered ANSI (Linux / Windows)</text>
<text x="562.0" y="58" text-anchor="middle" font-family="DejaVu Sans, sans-serif" font-size="13" fill="#999">Backspace on the home row · Delete top-right · AltGr + h/j/k/l = arrows</text>
<rect x="20" y="80" width="1084" height="384" rx="16" fill="#2a2a2a"/>
<rect x="40.0" y="100.0" width="64.0" height="64" rx="8" fill="#3b3b3b" stroke="#4d4d4d" stroke-width="1"/>
<text x="72.0" y="129.3" text-anchor="middle" font-family="DejaVu Sans, sans-serif" font-size="14" fill="#e8e4dd">~</text>
<text x="72.0" y="152.1" text-anchor="middle" font-family="DejaVu Sans, sans-serif" font-size="18" fill="#e8e4dd">`</text>
<rect x="110.0" y="100.0" width="64.0" height="64" rx="8" fill="#3b3b3b" stroke="#4d4d4d" stroke-width="1"/>
<text x="142.0" y="129.3" text-anchor="middle" font-family="DejaVu Sans, sans-serif" font-size="14" fill="#e8e4dd">9</text>
<text x="142.0" y="152.1" text-anchor="middle" font-family="DejaVu Sans, sans-serif" font-size="18" fill="#e8e4dd">!</text>
<rect x="180.0" y="100.0" width="64.0" height="64" rx="8" fill="#3b3b3b" stroke="#4d4d4d" stroke-width="1"/>
<text x="212.0" y="129.3" text-anchor="middle" font-family="DejaVu Sans, sans-serif" font-size="14" fill="#e8e4dd">7</text>
<text x="212.0" y="152.1" text-anchor="middle" font-family="DejaVu Sans, sans-serif" font-size="18" fill="#e8e4dd">@</text>
<rect x="250.0" y="100.0" width="64.0" height="64" rx="8" fill="#3b3b3b" stroke="#4d4d4d" stroke-width="1"/>
<text x="282.0" y="129.3" text-anchor="middle" font-family="DejaVu Sans, sans-serif" font-size="14" fill="#e8e4dd">5</text>
<text x="282.0" y="152.1" text-anchor="middle" font-family="DejaVu Sans, sans-serif" font-size="18" fill="#e8e4dd">#</text>
<rect x="320.0" y="100.0" width="64.0" height="64" rx="8" fill="#3b3b3b" stroke="#4d4d4d" stroke-width="1"/>
<text x="352.0" y="129.3" text-anchor="middle" font-family="DejaVu Sans, sans-serif" font-size="14" fill="#e8e4dd">3</text>
<text x="352.0" y="152.1" text-anchor="middle" font-family="DejaVu Sans, sans-serif" font-size="18" fill="#e8e4dd">$</text>
<rect x="390.0" y="100.0" width="64.0" height="64" rx="8" fill="#3b3b3b" stroke="#4d4d4d" stroke-width="1"/>
<text x="422.0" y="129.3" text-anchor="middle" font-family="DejaVu Sans, sans-serif" font-size="14" fill="#e8e4dd">1</text>
<text x="422.0" y="152.1" text-anchor="middle" font-family="DejaVu Sans, sans-serif" font-size="18" fill="#e8e4dd">%</text>
<rect x="460.0" y="100.0" width="64.0" height="64" rx="8" fill="#3b3b3b" stroke="#4d4d4d" stroke-width="1"/>
<text x="492.0" y="129.3" text-anchor="middle" font-family="DejaVu Sans, sans-serif" font-size="14" fill="#e8e4dd">0</text>
<text x="492.0" y="152.1" text-anchor="middle" font-family="DejaVu Sans, sans-serif" font-size="18" fill="#e8e4dd">^</text>
<rect x="530.0" y="100.0" width="64.0" height="64" rx="8" fill="#3b3b3b" stroke="#4d4d4d" stroke-width="1"/>
<text x="562.0" y="129.3" text-anchor="middle" font-family="DejaVu Sans, sans-serif" font-size="14" fill="#e8e4dd">2</text>
<text x="562.0" y="152.1" text-anchor="middle" font-family="DejaVu Sans, sans-serif" font-size="18" fill="#e8e4dd">&amp;</text>
<rect x="600.0" y="100.0" width="64.0" height="64" rx="8" fill="#3b3b3b" stroke="#4d4d4d" stroke-width="1"/>
<text x="632.0" y="129.3" text-anchor="middle" font-family="DejaVu Sans, sans-serif" font-size="14" fill="#e8e4dd">4</text>
<text x="632.0" y="152.1" text-anchor="middle" font-family="DejaVu Sans, sans-serif" font-size="18" fill="#e8e4dd">*</text>
<rect x="670.0" y="100.0" width="64.0" height="64" rx="8" fill="#3b3b3b" stroke="#4d4d4d" stroke-width="1"/>
<text x="702.0" y="129.3" text-anchor="middle" font-family="DejaVu Sans, sans-serif" font-size="14" fill="#e8e4dd">6</text>
<text x="702.0" y="152.1" text-anchor="middle" font-family="DejaVu Sans, sans-serif" font-size="18" fill="#e8e4dd">(</text>
<rect x="740.0" y="100.0" width="64.0" height="64" rx="8" fill="#3b3b3b" stroke="#4d4d4d" stroke-width="1"/>
<text x="772.0" y="129.3" text-anchor="middle" font-family="DejaVu Sans, sans-serif" font-size="14" fill="#e8e4dd">8</text>
<text x="772.0" y="152.1" text-anchor="middle" font-family="DejaVu Sans, sans-serif" font-size="18" fill="#e8e4dd">)</text>
<rect x="810.0" y="100.0" width="64.0" height="64" rx="8" fill="#3b3b3b" stroke="#4d4d4d" stroke-width="1"/>
<text x="842.0" y="129.3" text-anchor="middle" font-family="DejaVu Sans, sans-serif" font-size="14" fill="#e8e4dd">_</text>
<text x="842.0" y="152.1" text-anchor="middle" font-family="DejaVu Sans, sans-serif" font-size="18" fill="#e8e4dd">-</text>
<rect x="880.0" y="100.0" width="64.0" height="64" rx="8" fill="#3b3b3b" stroke="#4d4d4d" stroke-width="1"/>
<text x="912.0" y="129.3" text-anchor="middle" font-family="DejaVu Sans, sans-serif" font-size="14" fill="#e8e4dd">+</text>
<text x="912.0" y="152.1" text-anchor="middle" font-family="DejaVu Sans, sans-serif" font-size="18" fill="#e8e4dd">=</text>
<rect x="950.0" y="100.0" width="134.0" height="64" rx="8" fill="#3b3b3b" stroke="#4d4d4d" stroke-width="1"/>
<text x="1017.0" y="136.0" text-anchor="middle" font-family="DejaVu Sans, sans-serif" font-size="12" fill="#e8e4dd">Del</text>
<rect x="40.0" y="170.0" width="99.0" height="64" rx="8" fill="#3b3b3b" stroke="#4d4d4d" stroke-width="1"/>
<text x="89.5" y="206.0" text-anchor="middle" font-family="DejaVu Sans, sans-serif" font-size="12" fill="#e8e4dd">Tab</text>
<rect x="145.0" y="170.0" width="64.0" height="64" rx="8" fill="#3b3b3b" stroke="#4d4d4d" stroke-width="1"/>
<text x="177.0" y="209.0" text-anchor="middle" font-family="DejaVu Sans, sans-serif" font-size="20" fill="#e8e4dd">Q</text>
<rect x="215.0" y="170.0" width="64.0" height="64" rx="8" fill="#3b3b3b" stroke="#4d4d4d" stroke-width="1"/>
<text x="247.0" y="209.0" text-anchor="middle" font-family="DejaVu Sans, sans-serif" font-size="20" fill="#e8e4dd">R</text>
<rect x="285.0" y="170.0" width="64.0" height="64" rx="8" fill="#3b3b3b" stroke="#4d4d4d" stroke-width="1"/>
<text x="317.0" y="209.0" text-anchor="middle" font-family="DejaVu Sans, sans-serif" font-size="20" fill="#e8e4dd">F</text>
<rect x="355.0" y="170.0" width="64.0" height="64" rx="8" fill="#3b3b3b" stroke="#4d4d4d" stroke-width="1"/>
<text x="387.0" y="209.0" text-anchor="middle" font-family="DejaVu Sans, sans-serif" font-size="20" fill="#e8e4dd">W</text>
<rect x="425.0" y="170.0" width="64.0" height="64" rx="8" fill="#3b3b3b" stroke="#4d4d4d" stroke-width="1"/>
<text x="457.0" y="209.0" text-anchor="middle" font-family="DejaVu Sans, sans-serif" font-size="20" fill="#e8e4dd">G</text>
<rect x="495.0" y="170.0" width="64.0" height="64" rx="8" fill="#3b3b3b" stroke="#4d4d4d" stroke-width="1"/>
<text x="527.0" y="199.3" text-anchor="middle" font-family="DejaVu Sans, sans-serif" font-size="14" fill="#e8e4dd">:</text>
<text x="527.0" y="222.1" text-anchor="middle" font-family="DejaVu Sans, sans-serif" font-size="18" fill="#e8e4dd">;</text>
<rect x="565.0" y="170.0" width="64.0" height="64" rx="8" fill="#3b3b3b" stroke="#4d4d4d" stroke-width="1"/>
<text x="597.0" y="209.0" text-anchor="middle" font-family="DejaVu Sans, sans-serif" font-size="20" fill="#e8e4dd">L</text>
<text x="621.0" y="186.0" text-anchor="end" font-family="DejaVu Sans, sans-serif" font-size="13" fill="#d08770">→</text>
<rect x="635.0" y="170.0" width="64.0" height="64" rx="8" fill="#3b3b3b" stroke="#4d4d4d" stroke-width="1"/>
<text x="667.0" y="209.0" text-anchor="middle" font-family="DejaVu Sans, sans-serif" font-size="20" fill="#e8e4dd">P</text>
<rect x="705.0" y="170.0" width="64.0" height="64" rx="8" fill="#3b3b3b" stroke="#4d4d4d" stroke-width="1"/>
<text x="737.0" y="209.0" text-anchor="middle" font-family="DejaVu Sans, sans-serif" font-size="20" fill="#e8e4dd">Y</text>
<rect x="775.0" y="170.0" width="64.0" height="64" rx="8" fill="#3b3b3b" stroke="#4d4d4d" stroke-width="1"/>
<text x="807.0" y="209.0" text-anchor="middle" font-family="DejaVu Sans, sans-serif" font-size="20" fill="#e8e4dd">Z</text>
<rect x="845.0" y="170.0" width="64.0" height="64" rx="8" fill="#3b3b3b" stroke="#4d4d4d" stroke-width="1"/>
<text x="877.0" y="199.3" text-anchor="middle" font-family="DejaVu Sans, sans-serif" font-size="14" fill="#e8e4dd">{</text>
<text x="877.0" y="222.1" text-anchor="middle" font-family="DejaVu Sans, sans-serif" font-size="18" fill="#e8e4dd">[</text>
<rect x="915.0" y="170.0" width="64.0" height="64" rx="8" fill="#3b3b3b" stroke="#4d4d4d" stroke-width="1"/>
<text x="947.0" y="199.3" text-anchor="middle" font-family="DejaVu Sans, sans-serif" font-size="14" fill="#e8e4dd">}</text>
<text x="947.0" y="222.1" text-anchor="middle" font-family="DejaVu Sans, sans-serif" font-size="18" fill="#e8e4dd">]</text>
<rect x="985.0" y="170.0" width="99.0" height="64" rx="8" fill="#3b3b3b" stroke="#4d4d4d" stroke-width="1"/>
<text x="1034.5" y="206.0" text-anchor="middle" font-family="DejaVu Sans, sans-serif" font-size="12" fill="#e8e4dd">|  \</text>
<rect x="40.0" y="240.0" width="116.5" height="64" rx="8" fill="#3b3b3b" stroke="#4d4d4d" stroke-width="1"/>
<text x="98.2" y="276.0" text-anchor="middle" font-family="DejaVu Sans, sans-serif" font-size="12" fill="#e8e4dd">Backspace</text>
<rect x="162.5" y="240.0" width="64.0" height="64" rx="8" fill="#3b3b3b" stroke="#4d4d4d" stroke-width="1"/>
<text x="194.5" y="279.0" text-anchor="middle" font-family="DejaVu Sans, sans-serif" font-size="20" fill="#e8e4dd">A</text>
<rect x="232.5" y="240.0" width="64.0" height="64" rx="8" fill="#3b3b3b" stroke="#4d4d4d" stroke-width="1"/>
<text x="264.5" y="279.0" text-anchor="middle" font-family="DejaVu Sans, sans-serif" font-size="20" fill="#e8e4dd">S</text>
<rect x="302.5" y="240.0" width="64.0" height="64" rx="8" fill="#3b3b3b" stroke="#4d4d4d" stroke-width="1"/>
<text x="334.5" y="279.0" text-anchor="middle" font-family="DejaVu Sans, sans-serif" font-size="20" fill="#e8e4dd">E</text>
<rect x="372.5" y="240.0" width="64.0" height="64" rx="8" fill="#3b3b3b" stroke="#4d4d4d" stroke-width="1"/>
<text x="404.5" y="279.0" text-anchor="middle" font-family="DejaVu Sans, sans-serif" font-size="20" fill="#e8e4dd">T</text>
<rect x="398.5" y="295.0" width="12" height="3" rx="1.5" fill="#d08770"/>
<rect x="442.5" y="240.0" width="64.0" height="64" rx="8" fill="#3b3b3b" stroke="#4d4d4d" stroke-width="1"/>
<text x="474.5" y="279.0" text-anchor="middle" font-family="DejaVu Sans, sans-serif" font-size="20" fill="#e8e4dd">D</text>
<rect x="512.5" y="240.0" width="64.0" height="64" rx="8" fill="#3b3b3b" stroke="#4d4d4d" stroke-width="1"/>
<text x="544.5" y="279.0" text-anchor="middle" font-family="DejaVu Sans, sans-serif" font-size="20" fill="#e8e4dd">H</text>
<text x="568.5" y="256.0" text-anchor="end" font-family="DejaVu Sans, sans-serif" font-size="13" fill="#d08770">←</text>
<rect x="582.5" y="240.0" width="64.0" height="64" rx="8" fill="#3b3b3b" stroke="#4d4d4d" stroke-width="1"/>
<text x="614.5" y="279.0" text-anchor="middle" font-family="DejaVu Sans, sans-serif" font-size="20" fill="#e8e4dd">N</text>
<rect x="608.5" y="295.0" width="12" height="3" rx="1.5" fill="#d08770"/>
<rect x="652.5" y="240.0" width="64.0" height="64" rx="8" fill="#3b3b3b" stroke="#4d4d4d" stroke-width="1"/>
<text x="684.5" y="279.0" text-anchor="middle" font-family="DejaVu Sans, sans-serif" font-size="20" fill="#e8e4dd">U</text>
<rect x="722.5" y="240.0" width="64.0" height="64" rx="8" fill="#3b3b3b" stroke="#4d4d4d" stroke-width="1"/>
<text x="754.5" y="279.0" text-anchor="middle" font-family="DejaVu Sans, sans-serif" font-size="20" fill="#e8e4dd">I</text>
<rect x="792.5" y="240.0" width="64.0" height="64" rx="8" fill="#3b3b3b" stroke="#4d4d4d" stroke-width="1"/>
<text x="824.5" y="279.0" text-anchor="middle" font-family="DejaVu Sans, sans-serif" font-size="20" fill="#e8e4dd">O</text>
<rect x="862.5" y="240.0" width="64.0" height="64" rx="8" fill="#3b3b3b" stroke="#4d4d4d" stroke-width="1"/>
<text x="894.5" y="269.3" text-anchor="middle" font-family="DejaVu Sans, sans-serif" font-size="14" fill="#e8e4dd">"</text>
<text x="894.5" y="292.1" text-anchor="middle" font-family="DejaVu Sans, sans-serif" font-size="18" fill="#e8e4dd">'</text>
<rect x="932.5" y="240.0" width="151.5" height="64" rx="8" fill="#3b3b3b" stroke="#4d4d4d" stroke-width="1"/>
<text x="1008.2" y="276.0" text-anchor="middle" font-family="DejaVu Sans, sans-serif" font-size="12" fill="#e8e4dd">Enter</text>
<rect x="40.0" y="310.0" width="151.5" height="64" rx="8" fill="#3b3b3b" stroke="#4d4d4d" stroke-width="1"/>
<text x="115.8" y="346.0" text-anchor="middle" font-family="DejaVu Sans, sans-serif" font-size="12" fill="#e8e4dd">Shift</text>
<rect x="197.5" y="310.0" width="64.0" height="64" rx="8" fill="#3b3b3b" stroke="#4d4d4d" stroke-width="1"/>
<text x="229.5" y="339.3" text-anchor="middle" font-family="DejaVu Sans, sans-serif" font-size="14" fill="#e8e4dd">&lt;</text>
<text x="229.5" y="362.1" text-anchor="middle" font-family="DejaVu Sans, sans-serif" font-size="18" fill="#e8e4dd">,</text>
<rect x="267.5" y="310.0" width="64.0" height="64" rx="8" fill="#3b3b3b" stroke="#4d4d4d" stroke-width="1"/>
<text x="299.5" y="349.0" text-anchor="middle" font-family="DejaVu Sans, sans-serif" font-size="20" fill="#e8e4dd">C</text>
<rect x="337.5" y="310.0" width="64.0" height="64" rx="8" fill="#3b3b3b" stroke="#4d4d4d" stroke-width="1"/>
<text x="369.5" y="349.0" text-anchor="middle" font-family="DejaVu Sans, sans-serif" font-size="20" fill="#e8e4dd">X</text>
<rect x="407.5" y="310.0" width="64.0" height="64" rx="8" fill="#3b3b3b" stroke="#4d4d4d" stroke-width="1"/>
<text x="439.5" y="349.0" text-anchor="middle" font-family="DejaVu Sans, sans-serif" font-size="20" fill="#e8e4dd">V</text>
<rect x="477.5" y="310.0" width="64.0" height="64" rx="8" fill="#3b3b3b" stroke="#4d4d4d" stroke-width="1"/>
<text x="509.5" y="339.3" text-anchor="middle" font-family="DejaVu Sans, sans-serif" font-size="14" fill="#e8e4dd">?</text>
<text x="509.5" y="362.1" text-anchor="middle" font-family="DejaVu Sans, sans-serif" font-size="18" fill="#e8e4dd">/</text>
<rect x="547.5" y="310.0" width="64.0" height="64" rx="8" fill="#3b3b3b" stroke="#4d4d4d" stroke-width="1"/>
<text x="579.5" y="349.0" text-anchor="middle" font-family="DejaVu Sans, sans-serif" font-size="20" fill="#e8e4dd">K</text>
<text x="603.5" y="326.0" text-anchor="end" font-family="DejaVu Sans, sans-serif" font-size="13" fill="#d08770">↑</text>
<rect x="617.5" y="310.0" width="64.0" height="64" rx="8" fill="#3b3b3b" stroke="#4d4d4d" stroke-width="1"/>
<text x="649.5" y="349.0" text-anchor="middle" font-family="DejaVu Sans, sans-serif" font-size="20" fill="#e8e4dd">M</text>
<rect x="687.5" y="310.0" width="64.0" height="64" rx="8" fill="#3b3b3b" stroke="#4d4d4d" stroke-width="1"/>
<text x="719.5" y="349.0" text-anchor="middle" font-family="DejaVu Sans, sans-serif" font-size="20" fill="#e8e4dd">B</text>
<rect x="757.5" y="310.0" width="64.0" height="64" rx="8" fill="#3b3b3b" stroke="#4d4d4d" stroke-width="1"/>
<text x="789.5" y="349.0" text-anchor="middle" font-family="DejaVu Sans, sans-serif" font-size="20" fill="#e8e4dd">J</text>
<text x="813.5" y="326.0" text-anchor="end" font-family="DejaVu Sans, sans-serif" font-size="13" fill="#d08770">↓</text>
<rect x="827.5" y="310.0" width="64.0" height="64" rx="8" fill="#3b3b3b" stroke="#4d4d4d" stroke-width="1"/>
<text x="859.5" y="339.3" text-anchor="middle" font-family="DejaVu Sans, sans-serif" font-size="14" fill="#e8e4dd">&gt;</text>
<text x="859.5" y="362.1" text-anchor="middle" font-family="DejaVu Sans, sans-serif" font-size="18" fill="#e8e4dd">.</text>
<rect x="897.5" y="310.0" width="186.5" height="64" rx="8" fill="#3b3b3b" stroke="#4d4d4d" stroke-width="1"/>
<text x="990.8" y="346.0" text-anchor="middle" font-family="DejaVu Sans, sans-serif" font-size="12" fill="#e8e4dd">Shift</text>
<rect x="40.0" y="380.0" width="81.5" height="64" rx="8" fill="#3b3b3b" stroke="#4d4d4d" stroke-width="1"/>
<text x="80.8" y="416.0" text-anchor="middle" font-family="DejaVu Sans, sans-serif" font-size="12" fill="#e8e4dd">Ctrl</text>
<rect x="127.5" y="380.0" width="81.5" height="64" rx="8" fill="#3b3b3b" stroke="#4d4d4d" stroke-width="1"/>
<text x="168.2" y="416.0" text-anchor="middle" font-family="DejaVu Sans, sans-serif" font-size="12" fill="#e8e4dd">Super</text>
<rect x="215.0" y="380.0" width="81.5" height="64" rx="8" fill="#3b3b3b" stroke="#4d4d4d" stroke-width="1"/>
<text x="255.8" y="416.0" text-anchor="middle" font-family="DejaVu Sans, sans-serif" font-size="12" fill="#e8e4dd">Alt</text>
<rect x="302.5" y="380.0" width="431.5" height="64" rx="8" fill="#3b3b3b" stroke="#4d4d4d" stroke-width="1"/>
<text x="518.2" y="416.0" text-anchor="middle" font-family="DejaVu Sans, sans-serif" font-size="12" fill="#e8e4dd">Space</text>
<rect x="740.0" y="380.0" width="81.5" height="64" rx="8" fill="#3b3b3b" stroke="#4d4d4d" stroke-width="1"/>
<text x="780.8" y="416.0" text-anchor="middle" font-family="DejaVu Sans, sans-serif" font-size="12" fill="#e8e4dd">AltGr</text>
<text x="780.8" y="436.0" text-anchor="middle" font-family="DejaVu Sans, sans-serif" font-size="10" fill="#d08770">←↓↑→</text>
<rect x="827.5" y="380.0" width="81.5" height="64" rx="8" fill="#3b3b3b" stroke="#4d4d4d" stroke-width="1"/>
<text x="868.2" y="416.0" text-anchor="middle" font-family="DejaVu Sans, sans-serif" font-size="12" fill="#e8e4dd">Super</text>
<rect x="915.0" y="380.0" width="81.5" height="64" rx="8" fill="#3b3b3b" stroke="#4d4d4d" stroke-width="1"/>
<text x="955.8" y="416.0" text-anchor="middle" font-family="DejaVu Sans, sans-serif" font-size="12" fill="#e8e4dd">Menu</text>
<rect x="1002.5" y="380.0" width="81.5" height="64" rx="8" fill="#3b3b3b" stroke="#4d4d4d" stroke-width="1"/>
<text x="1043.2" y="416.0" text-anchor="middle" font-family="DejaVu Sans, sans-serif" font-size="12" fill="#e8e4dd">Ctrl</text>
</svg>