<svg xmlns="http://www.w3.org/2000/svg" width="954" height="1402" viewBox="0 0 954 1402">
<rect x="0" y="0" width="954" height="1402" fill="#1e1e1e"/>
<text x="477.0" y="46.0" font-family="DejaVu Sans, sans-serif" font-size="22" fill="#e8e4dd" text-anchor="middle" font-weight="bold">PiercingXX — Preonic 5x12</text>
<text x="477.0" y="74.0" font-family="DejaVu Sans, sans-serif" font-size="13" fill="#999" text-anchor="middle" font-weight="normal">as rendered by the OS layout · 2u Enter + 2u Space</text>
<text x="40.0" y="118.0" font-family="DejaVu Sans, sans-serif" font-size="14" fill="#bbb" text-anchor="start" font-weight="normal">Base layer</text>
<rect x="40" y="130" width="874" height="384" rx="16" fill="#2a2a2a"/>
<rect x="60" y="150" width="64" height="64" rx="8" fill="#3b3b3b" stroke="#4d4d4d" stroke-width="1"/>
<text x="92.0" y="177.0" font-family="DejaVu Sans, sans-serif" font-size="14" fill="#e8e4dd" text-anchor="middle" font-weight="normal">~</text>
<text x="92.0" y="198.0" font-family="DejaVu Sans, sans-serif" font-size="18" fill="#e8e4dd" text-anchor="middle" font-weight="normal">`</text>
<rect x="130" y="150" width="64" height="64" rx="8" fill="#3b3b3b" stroke="#4d4d4d" stroke-width="1"/>
<text x="162.0" y="177.0" font-family="DejaVu Sans, sans-serif" font-size="14" fill="#e8e4dd" text-anchor="middle" font-weight="normal">9</text>
<text x="162.0" y="198.0" font-family="DejaVu Sans, sans-serif" font-size="18" fill="#e8e4dd" text-anchor="middle" font-weight="normal">!</text>
<rect x="200" y="150" width="64" height="64" rx="8" fill="#3b3b3b" stroke="#4d4d4d" stroke-width="1"/>
<text x="232.0" y="177.0" font-family="DejaVu Sans, sans-serif" font-size="14" fill="#e8e4dd" text-anchor="middle" font-weight="normal">7</text>
<text x="232.0" y="198.0" font-family="DejaVu Sans, sans-serif" font-size="18" fill="#e8e4dd" text-anchor="middle" font-weight="normal">@</text>
<rect x="270" y="150" width="64" height="64" rx="8" fill="#3b3b3b" stroke="#4d4d4d" stroke-width="1"/>
<text x="302.0" y="177.0" font-family="DejaVu Sans, sans-serif" font-size="14" fill="#e8e4dd" text-anchor="middle" font-weight="normal">5</text>
<text x="302.0" y="198.0" font-family="DejaVu Sans, sans-serif" font-size="18" fill="#e8e4dd" text-anchor="middle" font-weight="normal">#</text>
<rect x="340" y="150" width="64" height="64" rx="8" fill="#3b3b3b" stroke="#4d4d4d" stroke-width="1"/>
<text x="372.0" y="177.0" font-family="DejaVu Sans, sans-serif" font-size="14" fill="#e8e4dd" text-anchor="middle" font-weight="normal">3</text>
<text x="372.0" y="198.0" font-family="DejaVu Sans, sans-serif" font-size="18" fill="#e8e4dd" text-anchor="middle" font-weight="normal">$</text>
<rect x="410" y="150" width="64" height="64" rx="8" fill="#3b3b3b" stroke="#4d4d4d" stroke-width="1"/>
<text x="442.0" y="177.0" font-family="DejaVu Sans, sans-serif" font-size="14" fill="#e8e4dd" text-anchor="middle" font-weight="normal">1</text>
<text x="442.0" y="198.0" font-family="DejaVu Sans, sans-serif" font-size="18" fill="#e8e4dd" text-anchor="middle" font-weight="normal">%</text>
<rect x="480" y="150" width="64" height="64" rx="8" fill="#3b3b3b" stroke="#4d4d4d" stroke-width="1"/>
<text x="512.0" y="177.0" font-family="DejaVu Sans, sans-serif" font-size="14" fill="#e8e4dd" text-anchor="middle" font-weight="normal">0</text>
<text x="512.0" y="198.0" font-family="DejaVu Sans, sans-serif" font-size="18" fill="#e8e4dd" text-anchor="middle" font-weight="normal">^</text>
<rect x="550" y="150" width="64" height="64" rx="8" fill="#3b3b3b" stroke="#4d4d4d" stroke-width="1"/>
<text x="582.0" y="177.0" font-family="DejaVu Sans, sans-serif" font-size="14" fill="#e8e4dd" text-anchor="middle" font-weight="normal">2</text>
<text x="582.0" y="198.0" font-family="DejaVu Sans, sans-serif" font-size="18" fill="#e8e4dd" text-anchor="middle" font-weight="normal">&amp;</text>
<rect x="620" y="150" width="64" height="64" rx="8" fill="#3b3b3b" stroke="#4d4d4d" stroke-width="1"/>
<text x="652.0" y="177.0" font-family="DejaVu Sans, sans-serif" font-size="14" fill="#e8e4dd" text-anchor="middle" font-weight="normal">4</text>
<text x="652.0" y="198.0" font-family="DejaVu Sans, sans-serif" font-size="18" fill="#e8e4dd" text-anchor="middle" font-weight="normal">*</text>
<rect x="690" y="150" width="64" height="64" rx="8" fill="#3b3b3b" stroke="#4d4d4d" stroke-width="1"/>
<text x="722.0" y="177.0" font-family="DejaVu Sans, sans-serif" font-size="14" fill="#e8e4dd" text-anchor="middle" font-weight="normal">6</text>
<text x="722.0" y="198.0" font-family="DejaVu Sans, sans-serif" font-size="18" fill="#e8e4dd" text-anchor="middle" font-weight="normal">(</text>
<rect x="760" y="150" width="64" height="64" rx="8" fill="#3b3b3b" stroke="#4d4d4d" stroke-width="1"/>
<text x="792.0" y="177.0" font-family="DejaVu Sans, sans-serif" font-size="14" fill="#e8e4dd" text-anchor="middle" font-weight="normal">8</text>
<text x="792.0" y="198.0" font-family="DejaVu Sans, sans-serif" font-size="18" fill="#e8e4dd" text-anchor="middle" font-weight="normal">)</text>
<rect x="830" y="150" width="64" height="64" rx="8" fill="#3b3b3b" stroke="#4d4d4d" stroke-width="1"/>
<text x="862.0" y="186.2" font-family="DejaVu Sans, sans-serif" font-size="12" fill="#e8e4dd" text-anchor="middle" font-weight="normal">Del</text>
<rect x="60" y="220" width="64" height="64" rx="8" fill="#3b3b3b" stroke="#4d4d4d" stroke-width="1"/>
<text x="92.0" y="256.2" font-family="DejaVu Sans, sans-serif" font-size="12" fill="#e8e4dd" text-anchor="middle" font-weight="normal">Tab</text>
<rect x="130" y="220" width="64" height="64" rx="8" fill="#3b3b3b" stroke="#4d4d4d" stroke-width="1"/>
<text x="162.0" y="259.0" font-family="DejaVu Sans, sans-serif" font-size="20" fill="#e8e4dd" text-anchor="middle" font-weight="normal">Q</text>
<rect x="200" y="220" width="64" height="64" rx="8" fill="#3b3b3b" stroke="#4d4d4d" stroke-width="1"/>
<text x="232.0" y="259.0" font-family="DejaVu Sans, sans-serif" font-size="20" fill="#e8e4dd" text-anchor="middle" font-weight="normal">R</text>
<rect x="270" y="220" width="64" height="64" rx="8" fill="#3b3b3b" stroke="#4d4d4d" stroke-width="1"/>
<text x="302.0" y="259.0" font-family="DejaVu Sans, sans-serif" font-size="20" fill="#e8e4dd" text-anchor="middle" font-weight="normal">F</text>
<rect x="340" y="220" width="64" height="64" rx="8" fill="#3b3b3b" stroke="#4d4d4d" stroke-width="1"/>
<text x="372.0" y="259.0" font-family="DejaVu Sans, sans-serif" font-size="20" fill="#e8e4dd" text-anchor="middle" font-weight="normal">W</text>
<rect x="410" y="220" width="64" height="64" rx="8" fill="#3b3b3b" stroke="#4d4d4d" stroke-width="1"/>
<text x="442.0" y="259.0" font-family="DejaVu Sans, sans-serif" font-size="20" fill="#e8e4dd" text-anchor="middle" font-weight="normal">G</text>
<rect x="480" y="220" width="64" height="64" rx="8" fill="#3b3b3b" stroke="#4d4d4d" stroke-width="1"/>
<text x="512.0" y="247.0" font-family="DejaVu Sans, sans-serif" font-size="14" fill="#e8e4dd" text-anchor="middle" font-weight="normal">:</text>
<text x="512.0" y="268.0" font-family="DejaVu Sans, sans-serif" font-size="18" fill="#e8e4dd" text-anchor="middle" font-weight="normal">;</text>
<rect x="550" y="220" width="64" height="64" rx="8" fill="#3b3b3b" stroke="#4d4d4d" stroke-width="1"/>
<text x="582.0" y="259.0" font-family="DejaVu Sans, sans-serif" font-size="20" fill="#e8e4dd" text-anchor="middle" font-weight="normal">L</text>
<text x="602.0" y="238.0" font-family="DejaVu Sans, sans-serif" font-size="13" fill="#d08770" text-anchor="middle" font-weight="normal">→</text>
<rect x="620" y="220" width="64" height="64" rx="8" fill="#3b3b3b" stroke="#4d4d4d" stroke-width="1"/>
<text x="652.0" y="259.0" font-family="DejaVu Sans, sans-serif" font-size="20" fill="#e8e4dd" text-anchor="middle" font-weight="normal">P</text>
<rect x="690" y="220" width="64" height="64" rx="8" fill="#3b3b3b" stroke="#4d4d4d" stroke-width="1"/>
<text x="722.0" y="259.0" font-family="DejaVu Sans, sans-serif" font-size="20" fill="#e8e4dd" text-anchor="middle" font-weight="normal">Y</text>
<rect x="760" y="220" width="64" height="64" rx="8" fill="#3b3b3b" stroke="#4d4d4d" stroke-width="1"/>
<text x="792.0" y="259.0" font-family="DejaVu Sans, sans-serif" font-size="20" fill="#e8e4dd" text-anchor="middle" font-weight="normal">Z</text>
<rect x="830" y="220" width="64" height="64" rx="8" fill="#3b3b3b" stroke="#4d4d4d" stroke-width="1"/>
<text x="862.0" y="256.2" font-family="DejaVu Sans, sans-serif" font-size="12" fill="#e8e4dd" text-anchor="middle" font-weight="normal">Play</text>
<rect x="60" y="290" width="64" height="64" rx="8" fill="#3b3b3b" stroke="#4d4d4d" stroke-width="1"/>
<text x="92.0" y="326.2" font-family="DejaVu Sans, sans-serif" font-size="12" fill="#e8e4dd" text-anchor="middle" font-weight="normal">Bksp</text>
<rect x="130" y="290" width="64" height="64" rx="8" fill="#3b3b3b" stroke="#4d4d4d" stroke-width="1"/>
<text x="162.0" y="329.0" font-family="DejaVu Sans, sans-serif" font-size="20" fill="#e8e4dd" text-anchor="middle" font-weight="normal">A</text>
<rect x="200" y="290" width="64" height="64" rx="8" fill="#3b3b3b" stroke="#4d4d4d" stroke-width="1"/>
<text x="232.0" y="329.0" font-family="DejaVu Sans, sans-serif" font-size="20" fill="#e8e4dd" text-anchor="middle" font-weight="normal">S</text>
<rect x="270" y="290" width="64" height="64" rx="8" fill="#3b3b3b" stroke="#4d4d4d" stroke-width="1"/>
<text x="302.0" y="329.0" font-family="DejaVu Sans, sans-serif" font-size="20" fill="#e8e4dd" text-anchor="middle" font-weight="normal">E</text>
<rect x="340" y="290" width="64" height="64" rx="8" fill="#3b3b3b" stroke="#4d4d4d" stroke-width="1"/>
<text x="372.0" y="329.0" font-family="DejaVu Sans, sans-serif" font-size="20" fill="#e8e4dd" text-anchor="middle" font-weight="normal">T</text>
<rect x="366.0" y="342" width="12" height="3" rx="1.5" fill="#d08770"/>
<rect x="410" y="290" width="64" height="64" rx="8" fill="#3b3b3b" stroke="#4d4d4d" stroke-width="1"/>
<text x="442.0" y="329.0" font-family="DejaVu Sans, sans-serif" font-size="20" fill="#e8e4dd" text-anchor="middle" font-weight="normal">D</text>
<rect x="480" y="290" width="64" height="64" rx="8" fill="#3b3b3b" stroke="#4d4d4d" stroke-width="1"/>
<text x="512.0" y="329.0" font-family="DejaVu Sans, sans-serif" font-size="20" fill="#e8e4dd" text-anchor="middle" font-weight="normal">H</text>
<text x="532.0" y="308.0" font-family="DejaVu Sans, sans-serif" font-size="13" fill="#d08770" text-anchor="middle" font-weight="normal">←</text>
<rect x="550" y="290" width="64" height="64" rx="8" fill="#3b3b3b" stroke="#4d4d4d" stroke-width="1"/>
<text x="582.0" y="329.0" font-family="DejaVu Sans, sans-serif" font-size="20" fill="#e8e4dd" text-anchor="middle" font-weight="normal">N</text>
<rect x="576.0" y="342" width="12" height="3" rx="1.5" fill="#d08770"/>
<rect x="620" y="290" width="64" height="64" rx="8" fill="#3b3b3b" stroke="#4d4d4d" stroke-width="1"/>
<text x="652.0" y="329.0" font-family="DejaVu Sans, sans-serif" font-size="20" fill="#e8e4dd" text-anchor="middle" font-weight="normal">U</text>
<rect x="690" y="290" width="64" height="64" rx="8" fill="#3b3b3b" stroke="#4d4d4d" stroke-width="1"/>
<text x="722.0" y="329.0" font-family="DejaVu Sans, sans-serif" font-size="20" fill="#e8e4dd" text-anchor="middle" font-weight="normal">I</text>
<rect x="760" y="290" width="64" height="64" rx="8" fill="#3b3b3b" stroke="#4d4d4d" stroke-width="1"/>
<text x="792.0" y="329.0" font-family="DejaVu Sans, sans-serif" font-size="20" fill="#e8e4dd" text-anchor="middle" font-weight="normal">O</text>
<rect x="830" y="290" width="64" height="64" rx="8" fill="#3b3b3b" stroke="#4d4d4d" stroke-width="1"/>
<text x="862.0" y="317.0" font-family="DejaVu Sans, sans-serif" font-size="14" fill="#e8e4dd" text-anchor="middle" font-weight="normal">&quot;</text>
<text x="862.0" y="338.0" font-family="DejaVu Sans, sans-serif" font-size="18" fill="#e8e4dd" text-anchor="middle" font-weight="normal">&#x27;</text>
<rect x="60" y="360" width="64" height="64" rx="8" fill="#3b3b3b" stroke="#4d4d4d" stroke-width="1"/>
<text x="92.0" y="396.2" font-family="DejaVu Sans, sans-serif" font-size="12" fill="#e8e4dd" text-anchor="middle" font-weight="normal">Shift</text>
<rect x="130" y="360" width="64" height="64" rx="8" fill="#3b3b3b" stroke="#4d4d4d" stroke-width="1"/>
<text x="162.0" y="387.0" font-family="DejaVu Sans, sans-serif" font-size="14" fill="#e8e4dd" text-anchor="middle" font-weight="normal">&lt;</text>
<text x="162.0" y="399.0" font-family="DejaVu Sans, sans-serif" font-size="18" fill="#e8e4dd" text-anchor="middle" font-weight="normal">,</text>
<text x="162.0" y="418.0" font-family="DejaVu Sans, sans-serif" font-size="9" fill="#d08770" text-anchor="middle" font-weight="normal">hold: L1</text>
<rect x="200" y="360" width="64" height="64" rx="8" fill="#3b3b3b" stroke="#4d4d4d" stroke-width="1"/>
<text x="232.0" y="390.0" font-family="DejaVu Sans, sans-serif" font-size="20" fill="#e8e4dd" text-anchor="middle" font-weight="normal">C</text>
<text x="232.0" y="418.0" font-family="DejaVu Sans, sans-serif" font-size="9" fill="#d08770" text-anchor="middle" font-weight="normal">hold: L2</text>
<rect x="270" y="360" width="64" height="64" rx="8" fill="#3b3b3b" stroke="#4d4d4d" stroke-width="1"/>
<text x="302.0" y="399.0" font-family="DejaVu Sans, sans-serif" font-size="20" fill="#e8e4dd" text-anchor="middle" font-weight="normal">X</text>
<rect x="340" y="360" width="64" height="64" rx="8" fill="#3b3b3b" stroke="#4d4d4d" stroke-width="1"/>
<text x="372.0" y="399.0" font-family="DejaVu Sans, sans-serif" font-size="20" fill="#e8e4dd" text-anchor="middle" font-weight="normal">V</text>
<rect x="410" y="360" width="64" height="64" rx="8" fill="#3b3b3b" stroke="#4d4d4d" stroke-width="1"/>
<text x="442.0" y="387.0" font-family="DejaVu Sans, sans-serif" font-size="14" fill="#e8e4dd" text-anchor="middle" font-weight="normal">?</text>
<text x="442.0" y="408.0" font-family="DejaVu Sans, sans-serif" font-size="18" fill="#e8e4dd" text-anchor="middle" font-weight="normal">/</text>
<rect x="480" y="360" width="64" height="64" rx="8" fill="#3b3b3b" stroke="#4d4d4d" stroke-width="1"/>
<text x="512.0" y="399.0" font-family="DejaVu Sans, sans-serif" font-size="20" fill="#e8e4dd" text-anchor="middle" font-weight="normal">K</text>
<text x="532.0" y="378.0" font-family="DejaVu Sans, sans-serif" font-size="13" fill="#d08770" text-anchor="middle" font-weight="normal">↑</text>
<rect x="550" y="360" width="64" height="64" rx="8" fill="#3b3b3b" stroke="#4d4d4d" stroke-width="1"/>
<text x="582.0" y="399.0" font-family="DejaVu Sans, sans-serif" font-size="20" fill="#e8e4dd" text-anchor="middle" font-weight="normal">M</text>
<rect x="620" y="360" width="64" height="64" rx="8" fill="#3b3b3b" stroke="#4d4d4d" stroke-width="1"/>
<text x="652.0" y="399.0" font-family="DejaVu Sans, sans-serif" font-size="20" fill="#e8e4dd" text-anchor="middle" font-weight="normal">B</text>
<rect x="690" y="360" width="64" height="64" rx="8" fill="#3b3b3b" stroke="#4d4d4d" stroke-width="1"/>
<text x="722.0" y="399.0" font-family="DejaVu Sans, sans-serif" font-size="20" fill="#e8e4dd" text-anchor="middle" font-weight="normal">J</text>
<text x="742.0" y="378.0" font-family="DejaVu Sans, sans-serif" font-size="13" fill="#d08770" text-anchor="middle" font-weight="normal">↓</text>
<rect x="760" y="360" width="64" height="64" rx="8" fill="#3b3b3b" stroke="#4d4d4d" stroke-width="1"/>
<text x="792.0" y="387.0" font-family="DejaVu Sans, sans-serif" font-size="14" fill="#e8e4dd" text-anchor="middle" font-weight="normal">&gt;</text>
<text x="792.0" y="408.0" font-family="DejaVu Sans, sans-serif" font-size="18" fill="#e8e4dd" text-anchor="middle" font-weight="normal">.</text>
<rect x="830" y="360" width="64" height="64" rx="8" fill="#3b3b3b" stroke="#4d4d4d" stroke-width="1"/>
<text x="862.0" y="396.2" font-family="DejaVu Sans, sans-serif" font-size="12" fill="#e8e4dd" text-anchor="middle" font-weight="normal">Shift</text>
<rect x="60" y="430" width="64" height="64" rx="8" fill="#3b3b3b" stroke="#4d4d4d" stroke-width="1"/>
<text x="92.0" y="466.2" font-family="DejaVu Sans, sans-serif" font-size="12" fill="#e8e4dd" text-anchor="middle" font-weight="normal">Ctrl</text>
<rect x="130" y="430" width="64" height="64" rx="8" fill="#3b3b3b" stroke="#4d4d4d" stroke-width="1"/>
<text x="162.0" y="466.2" font-family="DejaVu Sans, sans-serif" font-size="12" fill="#e8e4dd" text-anchor="middle" font-weight="normal">Super</text>
<rect x="200" y="430" width="64" height="64" rx="8" fill="#3b3b3b" stroke="#4d4d4d" stroke-width="1"/>
<text x="232.0" y="466.2" font-family="DejaVu Sans, sans-serif" font-size="12" fill="#e8e4dd" text-anchor="middle" font-weight="normal">Alt</text>
<rect x="270" y="430" width="64" height="64" rx="8" fill="#3b3b3b" stroke="#4d4d4d" stroke-width="1"/>
<text x="302.0" y="466.2" font-family="DejaVu Sans, sans-serif" font-size="12" fill="#e8e4dd" text-anchor="middle" font-weight="normal">AltGr</text>
<rect x="340" y="430" width="134" height="64" rx="8" fill="#3b3b3b" stroke="#4d4d4d" stroke-width="1"/>
<text x="407.0" y="466.2" font-family="DejaVu Sans, sans-serif" font-size="12" fill="#e8e4dd" text-anchor="middle" font-weight="normal">Enter</text>
<rect x="480" y="430" width="134" height="64" rx="8" fill="#3b3b3b" stroke="#4d4d4d" stroke-width="1"/>
<text x="547.0" y="466.2" font-family="DejaVu Sans, sans-serif" font-size="12" fill="#e8e4dd" text-anchor="middle" font-weight="normal">Space</text>
<rect x="620" y="430" width="64" height="64" rx="8" fill="#3b3b3b" stroke="#4d4d4d" stroke-width="1"/>
<text x="652.0" y="466.2" font-family="DejaVu Sans, sans-serif" font-size="12" fill="#e8e4dd" text-anchor="middle" font-weight="normal">PrtSc</text>
<rect x="690" y="430" width="64" height="64" rx="8" fill="#3b3b3b" stroke="#4d4d4d" stroke-width="1"/>
<text x="722.0" y="466.2" font-family="DejaVu Sans, sans-serif" font-size="12" fill="#e8e4dd" text-anchor="middle" font-weight="normal">Vol−</text>
<rect x="760" y="430" width="64" height="64" rx="8" fill="#3b3b3b" stroke="#4d4d4d" stroke-width="1"/>
<text x="792.0" y="466.2" font-family="DejaVu Sans, sans-serif" font-size="12" fill="#e8e4dd" text-anchor="middle" font-weight="normal">Vol+</text>
<rect x="830" y="430" width="64" height="64" rx="8" fill="#3b3b3b" stroke="#4d4d4d" stroke-width="1"/>
<text x="862.0" y="466.2" font-family="DejaVu Sans, sans-serif" font-size="12" fill="#e8e4dd" text-anchor="middle" font-weight="normal">Esc</text>
<text x="40.0" y="547.0" font-family="DejaVu Sans, sans-serif" font-size="14" fill="#bbb" text-anchor="start" font-weight="normal">Layer 1 (hold the , key)</text>
<rect x="40" y="559" width="874" height="384" rx="16" fill="#2a2a2a"/>
<rect x="60" y="579" width="64" height="64" rx="8" fill="#3b3b3b" stroke="#4d4d4d" stroke-width="1"/>
<text x="92.0" y="615.2" font-family="DejaVu Sans, sans-serif" font-size="12" fill="#e8e4dd" text-anchor="middle" font-weight="normal">F12</text>
<rect x="130" y="579" width="64" height="64" rx="8" fill="#3b3b3b" stroke="#4d4d4d" stroke-width="1"/>
<text x="162.0" y="615.2" font-family="DejaVu Sans, sans-serif" font-size="12" fill="#e8e4dd" text-anchor="middle" font-weight="normal">F1</text>
<rect x="200" y="579" width="64" height="64" rx="8" fill="#3b3b3b" stroke="#4d4d4d" stroke-width="1"/>
<text x="232.0" y="615.2" font-family="DejaVu Sans, sans-serif" font-size="12" fill="#e8e4dd" text-anchor="middle" font-weight="normal">F2</text>
<rect x="270" y="579" width="64" height="64" rx="8" fill="#3b3b3b" stroke="#4d4d4d" stroke-width="1"/>
<text x="302.0" y="615.2" font-family="DejaVu Sans, sans-serif" font-size="12" fill="#e8e4dd" text-anchor="middle" font-weight="normal">F3</text>
<rect x="340" y="579" width="64" height="64" rx="8" fill="#3b3b3b" stroke="#4d4d4d" stroke-width="1"/>
<text x="372.0" y="615.2" font-family="DejaVu Sans, sans-serif" font-size="12" fill="#e8e4dd" text-anchor="middle" font-weight="normal">F4</text>
<rect x="410" y="579" width="64" height="64" rx="8" fill="#3b3b3b" stroke="#4d4d4d" stroke-width="1"/>
<text x="442.0" y="615.2" font-family="DejaVu Sans, sans-serif" font-size="12" fill="#e8e4dd" text-anchor="middle" font-weight="normal">F5</text>
<rect x="480" y="579" width="64" height="64" rx="8" fill="#3b3b3b" stroke="#4d4d4d" stroke-width="1"/>
<text x="512.0" y="615.2" font-family="DejaVu Sans, sans-serif" font-size="12" fill="#e8e4dd" text-anchor="middle" font-weight="normal">F6</text>
<rect x="550" y="579" width="64" height="64" rx="8" fill="#3b3b3b" stroke="#4d4d4d" stroke-width="1"/>
<text x="582.0" y="615.2" font-family="DejaVu Sans, sans-serif" font-size="12" fill="#e8e4dd" text-anchor="middle" font-weight="normal">F7</text>
<rect x="620" y="579" width="64" height="64" rx="8" fill="#3b3b3b" stroke="#4d4d4d" stroke-width="1"/>
<text x="652.0" y="615.2" font-family="DejaVu Sans, sans-serif" font-size="12" fill="#e8e4dd" text-anchor="middle" font-weight="normal">F8</text>
<rect x="690" y="579" width="64" height="64" rx="8" fill="#3b3b3b" stroke="#4d4d4d" stroke-width="1"/>
<text x="722.0" y="615.2" font-family="DejaVu Sans, sans-serif" font-size="12" fill="#e8e4dd" text-anchor="middle" font-weight="normal">F9</text>
<rect x="760" y="579" width="64" height="64" rx="8" fill="#3b3b3b" stroke="#4d4d4d" stroke-width="1"/>
<text x="792.0" y="615.2" font-family="DejaVu Sans, sans-serif" font-size="12" fill="#e8e4dd" text-anchor="middle" font-weight="normal">F10</text>
<rect x="830" y="579" width="64" height="64" rx="8" fill="#3b3b3b" stroke="#4d4d4d" stroke-width="1"/>
<text x="862.0" y="615.2" font-family="DejaVu Sans, sans-serif" font-size="12" fill="#e8e4dd" text-anchor="middle" font-weight="normal">Ins</text>
<rect x="60" y="649" width="64" height="64" rx="8" fill="#2f2f2f" stroke="#3a3a3a" stroke-width="1"/>
<rect x="130" y="649" width="64" height="64" rx="8" fill="#2f2f2f" stroke="#3a3a3a" stroke-width="1"/>
<rect x="200" y="649" width="64" height="64" rx="8" fill="#2f2f2f" stroke="#3a3a3a" stroke-width="1"/>
<rect x="270" y="649" width="64" height="64" rx="8" fill="#2f2f2f" stroke="#3a3a3a" stroke-width="1"/>
<rect x="340" y="649" width="64" height="64" rx="8" fill="#2f2f2f" stroke="#3a3a3a" stroke-width="1"/>
<rect x="410" y="649" width="64" height="64" rx="8" fill="#2f2f2f" stroke="#3a3a3a" stroke-width="1"/>
<rect x="480" y="649" width="64" height="64" rx="8" fill="#2f2f2f" stroke="#3a3a3a" stroke-width="1"/>
<rect x="550" y="649" width="64" height="64" rx="8" fill="#3b3b3b" stroke="#4d4d4d" stroke-width="1"/>
<text x="582.0" y="688.7" font-family="DejaVu Sans, sans-serif" font-size="22" fill="#d08770" text-anchor="middle" font-weight="normal">→</text>
<rect x="620" y="649" width="64" height="64" rx="8" fill="#2f2f2f" stroke="#3a3a3a" stroke-width="1"/>
<rect x="690" y="649" width="64" height="64" rx="8" fill="#2f2f2f" stroke="#3a3a3a" stroke-width="1"/>
<rect x="760" y="649" width="64" height="64" rx="8" fill="#3b3b3b" stroke="#4d4d4d" stroke-width="1"/>
<text x="792.0" y="688.0" font-family="DejaVu Sans, sans-serif" font-size="20" fill="#e8e4dd" text-anchor="middle" font-weight="normal">-</text>
<rect x="830" y="649" width="64" height="64" rx="8" fill="#3b3b3b" stroke="#4d4d4d" stroke-width="1"/>
<text x="862.0" y="688.0" font-family="DejaVu Sans, sans-serif" font-size="20" fill="#e8e4dd" text-anchor="middle" font-weight="normal">=</text>
<rect x="60" y="719" width="64" height="64" rx="8" fill="#2f2f2f" stroke="#3a3a3a" stroke-width="1"/>
<rect x="130" y="719" width="64" height="64" rx="8" fill="#2f2f2f" stroke="#3a3a3a" stroke-width="1"/>
<rect x="200" y="719" width="64" height="64" rx="8" fill="#2f2f2f" stroke="#3a3a3a" stroke-width="1"/>
<rect x="270" y="719" width="64" height="64" rx="8" fill="#2f2f2f" stroke="#3a3a3a" stroke-width="1"/>
<rect x="340" y="719" width="64" height="64" rx="8" fill="#2f2f2f" stroke="#3a3a3a" stroke-width="1"/>
<rect x="410" y="719" width="64" height="64" rx="8" fill="#2f2f2f" stroke="#3a3a3a" stroke-width="1"/>
<rect x="480" y="719" width="64" height="64" rx="8" fill="#3b3b3b" stroke="#4d4d4d" stroke-width="1"/>
<text x="512.0" y="758.7" font-family="DejaVu Sans, sans-serif" font-size="22" fill="#d08770" text-anchor="middle" font-weight="normal">←</text>
<rect x="550" y="719" width="64" height="64" rx="8" fill="#2f2f2f" stroke="#3a3a3a" stroke-width="1"/>
<rect x="620" y="719" width="64" height="64" rx="8" fill="#2f2f2f" stroke="#3a3a3a" stroke-width="1"/>
<rect x="690" y="719" width="64" height="64" rx="8" fill="#2f2f2f" stroke="#3a3a3a" stroke-width="1"/>
<rect x="760" y="719" width="64" height="64" rx="8" fill="#3b3b3b" stroke="#4d4d4d" stroke-width="1"/>
<text x="792.0" y="758.0" font-family="DejaVu Sans, sans-serif" font-size="20" fill="#e8e4dd" text-anchor="middle" font-weight="normal">\</text>
<rect x="830" y="719" width="64" height="64" rx="8" fill="#3b3b3b" stroke="#4d4d4d" stroke-width="1"/>
<text x="862.0" y="758.0" font-family="DejaVu Sans, sans-serif" font-size="20" fill="#e8e4dd" text-anchor="middle" font-weight="normal">`</text>
<rect x="60" y="789" width="64" height="64" rx="8" fill="#2f2f2f" stroke="#3a3a3a" stroke-width="1"/>
<rect x="130" y="789" width="64" height="64" rx="8" fill="#2f2f2f" stroke="#3a3a3a" stroke-width="1"/>
<rect x="200" y="789" width="64" height="64" rx="8" fill="#2f2f2f" stroke="#3a3a3a" stroke-width="1"/>
<rect x="270" y="789" width="64" height="64" rx="8" fill="#2f2f2f" stroke="#3a3a3a" stroke-width="1"/>
<rect x="340" y="789" width="64" height="64" rx="8" fill="#2f2f2f" stroke="#3a3a3a" stroke-width="1"/>
<rect x="410" y="789" width="64" height="64" rx="8" fill="#2f2f2f" stroke="#3a3a3a" stroke-width="1"/>
<rect x="480" y="789" width="64" height="64" rx="8" fill="#3b3b3b" stroke="#4d4d4d" stroke-width="1"/>
<text x="512.0" y="828.7" font-family="DejaVu Sans, sans-serif" font-size="22" fill="#d08770" text-anchor="middle" font-weight="normal">↑</text>
<rect x="550" y="789" width="64" height="64" rx="8" fill="#2f2f2f" stroke="#3a3a3a" stroke-width="1"/>
<rect x="620" y="789" width="64" height="64" rx="8" fill="#2f2f2f" stroke="#3a3a3a" stroke-width="1"/>
<rect x="690" y="789" width="64" height="64" rx="8" fill="#3b3b3b" stroke="#4d4d4d" stroke-width="1"/>
<text x="722.0" y="828.7" font-family="DejaVu Sans, sans-serif" font-size="22" fill="#d08770" text-anchor="middle" font-weight="normal">↓</text>
<rect x="760" y="789" width="64" height="64" rx="8" fill="#3b3b3b" stroke="#4d4d4d" stroke-width="1"/>
<text x="792.0" y="828.0" font-family="DejaVu Sans, sans-serif" font-size="20" fill="#e8e4dd" text-anchor="middle" font-weight="normal">[</text>
<rect x="830" y="789" width="64" height="64" rx="8" fill="#3b3b3b" stroke="#4d4d4d" stroke-width="1"/>
<text x="862.0" y="828.0" font-family="DejaVu Sans, sans-serif" font-size="20" fill="#e8e4dd" text-anchor="middle" font-weight="normal">]</text>
<rect x="60" y="859" width="64" height="64" rx="8" fill="#2f2f2f" stroke="#3a3a3a" stroke-width="1"/>
<rect x="130" y="859" width="64" height="64" rx="8" fill="#2f2f2f" stroke="#3a3a3a" stroke-width="1"/>
<rect x="200" y="859" width="64" height="64" rx="8" fill="#2f2f2f" stroke="#3a3a3a" stroke-width="1"/>
<rect x="270" y="859" width="64" height="64" rx="8" fill="#2f2f2f" stroke="#3a3a3a" stroke-width="1"/>
<rect x="340" y="859" width="134" height="64" rx="8" fill="#2f2f2f" stroke="#3a3a3a" stroke-width="1"/>
<rect x="480" y="859" width="134" height="64" rx="8" fill="#2f2f2f" stroke="#3a3a3a" stroke-width="1"/>
<rect x="620" y="859" width="64" height="64" rx="8" fill="#3b3b3b" stroke="#4d4d4d" stroke-width="1"/>
<text x="652.0" y="895.2" font-family="DejaVu Sans, sans-serif" font-size="12" fill="#e8e4dd" text-anchor="middle" font-weight="normal">Play</text>
<rect x="690" y="859" width="64" height="64" rx="8" fill="#2f2f2f" stroke="#3a3a3a" stroke-width="1"/>
<rect x="760" y="859" width="64" height="64" rx="8" fill="#2f2f2f" stroke="#3a3a3a" stroke-width="1"/>
<rect x="830" y="859" width="64" height="64" rx="8" fill="#2f2f2f" stroke="#3a3a3a" stroke-width="1"/>
<text x="40.0" y="976.0" font-family="DejaVu Sans, sans-serif" font-size="14" fill="#bbb" text-anchor="start" font-weight="normal">Layer 2 (hold the c key)</text>
<rect x="40" y="988" width="874" height="384" rx="16" fill="#2a2a2a"/>
<rect x="60" y="1008" width="64" height="64" rx="8" fill="#2f2f2f" stroke="#3a3a3a" stroke-width="1"/>
<rect x="130" y="1008" width="64" height="64" rx="8" fill="#2f2f2f" stroke="#3a3a3a" stroke-width="1"/>
<rect x="200" y="1008" width="64" height="64" rx="8" fill="#2f2f2f" stroke="#3a3a3a" stroke-width="1"/>
<rect x="270" y="1008" width="64" height="64" rx="8" fill="#2f2f2f" stroke="#3a3a3a" stroke-width="1"/>
<rect x="340" y="1008" width="64" height="64" rx="8" fill="#2f2f2f" stroke="#3a3a3a" stroke-width="1"/>
<rect x="410" y="1008" width="64" height="64" rx="8" fill="#2f2f2f" stroke="#3a3a3a" stroke-width="1"/>
<rect x="480" y="1008" width="64" height="64" rx="8" fill="#2f2f2f" stroke="#3a3a3a" stroke-width="1"/>
<rect x="550" y="1008" width="64" height="64" rx="8" fill="#3b3b3b" stroke="#4d4d4d" stroke-width="1"/>
<text x="582.0" y="1044.2" font-family="DejaVu Sans, sans-serif" font-size="12" fill="#e8e4dd" text-anchor="middle" font-weight="normal">NumLk</text>
<rect x="620" y="1008" width="64" height="64" rx="8" fill="#3b3b3b" stroke="#4d4d4d" stroke-width="1"/>
<text x="652.0" y="1044.2" font-family="DejaVu Sans, sans-serif" font-size="12" fill="#e8e4dd" text-anchor="middle" font-weight="normal">P/</text>
<rect x="690" y="1008" width="64" height="64" rx="8" fill="#3b3b3b" stroke="#4d4d4d" stroke-width="1"/>
<text x="722.0" y="1044.2" font-family="DejaVu Sans, sans-serif" font-size="12" fill="#e8e4dd" text-anchor="middle" font-weight="normal">P*</text>
<rect x="760" y="1008" width="64" height="64" rx="8" fill="#3b3b3b" stroke="#4d4d4d" stroke-width="1"/>
<text x="792.0" y="1044.2" font-family="DejaVu Sans, sans-serif" font-size="12" fill="#e8e4dd" text-anchor="middle" font-weight="normal">P−</text>
<rect x="830" y="1008" width="64" height="64" rx="8" fill="#3b3b3b" stroke="#4d4d4d" stroke-width="1"/>
<text x="862.0" y="1044.2" font-family="DejaVu Sans, sans-serif" font-size="12" fill="#e8e4dd" text-anchor="middle" font-weight="normal">Ins</text>
<rect x="60" y="1078" width="64" height="64" rx="8" fill="#2f2f2f" stroke="#3a3a3a" stroke-width="1"/>
<rect x="130" y="1078" width="64" height="64" rx="8" fill="#2f2f2f" stroke="#3a3a3a" stroke-width="1"/>
<rect x="200" y="1078" width="64" height="64" rx="8" fill="#2f2f2f" stroke="#3a3a3a" stroke-width="1"/>
<rect x="270" y="1078" width="64" height="64" rx="8" fill="#2f2f2f" stroke="#3a3a3a" stroke-width="1"/>
<rect x="340" y="1078" width="64" height="64" rx="8" fill="#2f2f2f" stroke="#3a3a3a" stroke-width="1"/>
<rect x="410" y="1078" width="64" height="64" rx="8" fill="#2f2f2f" stroke="#3a3a3a" stroke-width="1"/>
<rect x="480" y="1078" width="64" height="64" rx="8" fill="#3b3b3b" stroke="#4d4d4d" stroke-width="1"/>
<text x="512.0" y="1114.2" font-family="DejaVu Sans, sans-serif" font-size="12" fill="#e8e4dd" text-anchor="middle" font-weight="normal">P+</text>
<rect x="550" y="1078" width="64" height="64" rx="8" fill="#3b3b3b" stroke="#4d4d4d" stroke-width="1"/>
<text x="582.0" y="1117.0" font-family="DejaVu Sans, sans-serif" font-size="20" fill="#e8e4dd" text-anchor="middle" font-weight="normal">7</text>
<rect x="620" y="1078" width="64" height="64" rx="8" fill="#3b3b3b" stroke="#4d4d4d" stroke-width="1"/>
<text x="652.0" y="1117.0" font-family="DejaVu Sans, sans-serif" font-size="20" fill="#e8e4dd" text-anchor="middle" font-weight="normal">8</text>
<rect x="690" y="1078" width="64" height="64" rx="8" fill="#3b3b3b" stroke="#4d4d4d" stroke-width="1"/>
<text x="722.0" y="1117.0" font-family="DejaVu Sans, sans-serif" font-size="20" fill="#e8e4dd" text-anchor="middle" font-weight="normal">9</text>
<rect x="760" y="1078" width="64" height="64" rx="8" fill="#3b3b3b" stroke="#4d4d4d" stroke-width="1"/>
<text x="792.0" y="1117.0" font-family="DejaVu Sans, sans-serif" font-size="20" fill="#e8e4dd" text-anchor="middle" font-weight="normal">-</text>
<rect x="830" y="1078" width="64" height="64" rx="8" fill="#3b3b3b" stroke="#4d4d4d" stroke-width="1"/>
<text x="862.0" y="1117.0" font-family="DejaVu Sans, sans-serif" font-size="20" fill="#e8e4dd" text-anchor="middle" font-weight="normal">=</text>
<rect x="60" y="1148" width="64" height="64" rx="8" fill="#2f2f2f" stroke="#3a3a3a" stroke-width="1"/>
<rect x="130" y="1148" width="64" height="64" rx="8" fill="#2f2f2f" stroke="#3a3a3a" stroke-width="1"/>
<rect x="200" y="1148" width="64" height="64" rx="8" fill="#2f2f2f" stroke="#3a3a3a" stroke-width="1"/>
<rect x="270" y="1148" width="64" height="64" rx="8" fill="#2f2f2f" stroke="#3a3a3a" stroke-width="1"/>
<rect x="340" y="1148" width="64" height="64" rx="8" fill="#2f2f2f" stroke="#3a3a3a" stroke-width="1"/>
<rect x="410" y="1148" width="64" height="64" rx="8" fill="#2f2f2f" stroke="#3a3a3a" stroke-width="1"/>
<rect x="480" y="1148" width="64" height="64" rx="8" fill="#3b3b3b" stroke="#4d4d4d" stroke-width="1"/>
<text x="512.0" y="1184.2" font-family="DejaVu Sans, sans-serif" font-size="12" fill="#e8e4dd" text-anchor="middle" font-weight="normal">P−</text>
<rect x="550" y="1148" width="64" height="64" rx="8" fill="#3b3b3b" stroke="#4d4d4d" stroke-width="1"/>
<text x="582.0" y="1187.0" font-family="DejaVu Sans, sans-serif" font-size="20" fill="#e8e4dd" text-anchor="middle" font-weight="normal">4</text>
<rect x="620" y="1148" width="64" height="64" rx="8" fill="#3b3b3b" stroke="#4d4d4d" stroke-width="1"/>
<text x="652.0" y="1187.0" font-family="DejaVu Sans, sans-serif" font-size="20" fill="#e8e4dd" text-anchor="middle" font-weight="normal">5</text>
<rect x="690" y="1148" width="64" height="64" rx="8" fill="#3b3b3b" stroke="#4d4d4d" stroke-width="1"/>
<text x="722.0" y="1187.0" font-family="DejaVu Sans, sans-serif" font-size="20" fill="#e8e4dd" text-anchor="middle" font-weight="normal">6</text>
<rect x="760" y="1148" width="64" height="64" rx="8" fill="#3b3b3b" stroke="#4d4d4d" stroke-width="1"/>
<text x="792.0" y="1187.0" font-family="DejaVu Sans, sans-serif" font-size="20" fill="#e8e4dd" text-anchor="middle" font-weight="normal">\</text>
<rect x="830" y="1148" width="64" height="64" rx="8" fill="#3b3b3b" stroke="#4d4d4d" stroke-width="1"/>
<text x="862.0" y="1187.0" font-family="DejaVu Sans, sans-serif" font-size="20" fill="#e8e4dd" text-anchor="middle" font-weight="normal">`</text>
<rect x="60" y="1218" width="64" height="64" rx="8" fill="#2f2f2f" stroke="#3a3a3a" stroke-width="1"/>
<rect x="130" y="1218" width="64" height="64" rx="8" fill="#2f2f2f" stroke="#3a3a3a" stroke-width="1"/>
<rect x="200" y="1218" width="64" height="64" rx="8" fill="#2f2f2f" stroke="#3a3a3a" stroke-width="1"/>
<rect x="270" y="1218" width="64" height="64" rx="8" fill="#2f2f2f" stroke="#3a3a3a" stroke-width="1"/>
<rect x="340" y="1218" width="64" height="64" rx="8" fill="#2f2f2f" stroke="#3a3a3a" stroke-width="1"/>
<rect x="410" y="1218" width="64" height="64" rx="8" fill="#2f2f2f" stroke="#3a3a3a" stroke-width="1"/>
<rect x="480" y="1218" width="64" height="64" rx="8" fill="#3b3b3b" stroke="#4d4d4d" stroke-width="1"/>
<text x="512.0" y="1254.2" font-family="DejaVu Sans, sans-serif" font-size="12" fill="#e8e4dd" text-anchor="middle" font-weight="normal">P.</text>
<rect x="550" y="1218" width="64" height="64" rx="8" fill="#3b3b3b" stroke="#4d4d4d" stroke-width="1"/>
<text x="582.0" y="1257.0" font-family="DejaVu Sans, sans-serif" font-size="20" fill="#e8e4dd" text-anchor="middle" font-weight="normal">1</text>
<rect x="620" y="1218" width="64" height="64" rx="8" fill="#3b3b3b" stroke="#4d4d4d" stroke-width="1"/>
<text x="652.0" y="1257.0" font-family="DejaVu Sans, sans-serif" font-size="20" fill="#e8e4dd" text-anchor="middle" font-weight="normal">2</text>
<rect x="690" y="1218" width="64" height="64" rx="8" fill="#3b3b3b" stroke="#4d4d4d" stroke-width="1"/>
<text x="722.0" y="1257.0" font-family="DejaVu Sans, sans-serif" font-size="20" fill="#e8e4dd" text-anchor="middle" font-weight="normal">3</text>
<rect x="760" y="1218" width="64" height="64" rx="8" fill="#3b3b3b" stroke="#4d4d4d" stroke-width="1"/>
<text x="792.0" y="1257.0" font-family="DejaVu Sans, sans-serif" font-size="20" fill="#e8e4dd" text-anchor="middle" font-weight="normal">[</text>
<rect x="830" y="1218" width="64" height="64" rx="8" fill="#3b3b3b" stroke="#4d4d4d" stroke-width="1"/>
<text x="862.0" y="1257.0" font-family="DejaVu Sans, sans-serif" font-size="20" fill="#e8e4dd" text-anchor="middle" font-weight="normal">]</text>
<rect x="60" y="1288" width="64" height="64" rx="8" fill="#2f2f2f" stroke="#3a3a3a" stroke-width="1"/>
<rect x="130" y="1288" width="64" height="64" rx="8" fill="#2f2f2f" stroke="#3a3a3a" stroke-width="1"/>
<rect x="200" y="1288" width="64" height="64" rx="8" fill="#2f2f2f" stroke="#3a3a3a" stroke-width="1"/>
<rect x="270" y="1288" width="64" height="64" rx="8" fill="#2f2f2f" stroke="#3a3a3a" stroke-width="1"/>
<rect x="340" y="1288" width="134" height="64" rx="8" fill="#2f2f2f" stroke="#3a3a3a" stroke-width="1"/>
<rect x="480" y="1288" width="134" height="64" rx="8" fill="#3b3b3b" stroke="#4d4d4d" stroke-width="1"/>
<text x="547.0" y="1327.0" font-family="DejaVu Sans, sans-serif" font-size="20" fill="#e8e4dd" text-anchor="middle" font-weight="normal">0</text>
<rect x="620" y="1288" width="64" height="64" rx="8" fill="#3b3b3b" stroke="#4d4d4d" stroke-width="1"/>
<text x="652.0" y="1324.2" font-family="DejaVu Sans, sans-serif" font-size="12" fill="#e8e4dd" text-anchor="middle" font-weight="normal">P.</text>
<rect x="690" y="1288" width="64" height="64" rx="8" fill="#2f2f2f" stroke="#3a3a3a" stroke-width="1"/>
<rect x="760" y="1288" width="64" height="64" rx="8" fill="#2f2f2f" stroke="#3a3a3a" stroke-width="1"/>
<rect x="830" y="1288" width="64" height="64" rx="8" fill="#2f2f2f" stroke="#3a3a3a" stroke-width="1"/>
</svg>